# xmcd
#
# Track frame offsets:
#	150
#	9303
#	20713
#	34109
#	40729
#	48532
#	60600
#	72511
#	83535
#	95070
#	105477
#	117839
#	127343
#	137738
#	147851
#	158297
#	168833
#	182533
#	198124
#	206679
#	217646
#	230210
#	243518
#	254800
#	267946
#
# Disc length: 3726 seconds
#
# Revision: 0
# Processed by: cddbd v1.5.2PL0 Copyright (c) Steve Scherf et al.
# Submitted via: EasyCDDAExtractor 2010.6.0.0
#
DISCID=600e8c19
DTITLE=Various Artist - Pride Of The Hayride Disc 4
DYEAR=1900
DGENRE=
TTITLE0=O'Gwynn James - Shade Tree Fix It Man (Plantation)
TTITLE1=O'Gwynn James - Country Song (Plantation)
TTITLE2=O'Gwynn James - Gotebo (Plantation)
TTITLE3=O'Gwynn James - Singing In The Jungle (Plantation)
TTITLE4=O'Gwynn James - If I Could Sing A Country Song (Plantation)
TTITLE5=O'Gwynn James and Rusty Adams - We Love Her (Plantation)
TTITLE6=O'Gwynn James - Tender Years (Plantation)
TTITLE7=O'Gwynn James - Talk To Me Lonesome Heart (Plantation)
TTITLE8=O'Gwynn James - One Night Gone (Plantation)
TTITLE9=O'Gwynn James - Living With A Memory (Plantation)
TTITLE10=O'Gwynn James - I Won't Love You Anymore (Plantation)
TTITLE11=O'Gwynn James - Easy Money (Plantation)
TTITLE12=O'Gwynn James - My Name Is Mud (Plantation)
TTITLE13=O'Gwynn James and Rita Remington - You're Too Easy To Remember (Plantat
TTITLE13=ion)
TTITLE14=O'Gwynn James and Rita Remington - Rings On The Bar (Plantation)
TTITLE15=O'Gwynn James - Honky Tonk Angels (Plantation)
TTITLE16=O'Gwynn James - If I Could Get Just One More Hit (Fast)(Plantation)
TTITLE17=O'Gwynn James - If I Could Get Just One More Hit (Slow)(Plantation)
TTITLE18=O'Gwynn James - Sock It To Her Song (Plantation)
TTITLE19=O'Gwynn James - Half Of Mind (Cowboy Capitol)
TTITLE20=O'Gwynn James - Old Old House (Cowboy Capitol)
TTITLE21=O'Gwynn James - Different Kind Of Flower (Cowboy Capitol)
TTITLE22=O'Gwynn James - Cheating Traces (Cowboy Capitol)
TTITLE23=O'Gwynn James - Buckaroo Cowboy (Cowboy Capitol)
TTITLE24=O'Gwynn James - Ain't It Funny When You're Lonely
EXTD=
EXTT0=
EXTT1=
EXTT2=
EXTT3=
EXTT4=
EXTT5=
EXTT6=
EXTT7=
EXTT8=
EXTT9=
EXTT10=
EXTT11=
EXTT12=
EXTT13=
EXTT14=
EXTT15=
EXTT16=
EXTT17=
EXTT18=
EXTT19=
EXTT20=
EXTT21=
EXTT22=
EXTT23=
EXTT24=
PLAYORDER=
